<svg id="Layer_1" data-name="Layer 1" xmlns="http://www.w3.org/2000/svg" viewBox="0 0 40 40"><defs><style>.cls-1{fill:#231f20;}</style></defs><path class="cls-1" d="M30.35,22.63a3.44,3.44,0,0,1-.58,1.67,3,3,0,0,1-2.52,1.2c-2.39,0-3.81-1.9-3.81-5,0-.05,0-.09,0-.15h0L20.6,21.77v-.51l2.29-1.18L20.6,18.94v-.45l2.82,1.4h0c.16-2.81,1.48-4.45,3.69-4.45a2.89,2.89,0,0,1,3,2.61l4-.77A6.06,6.06,0,0,0,33,14.64a6.72,6.72,0,0,0-5.67-2.51,7.82,7.82,0,0,0-5.53,2,7,7,0,0,0-1.52,2.27,6.45,6.45,0,0,0-1.37-2,7.74,7.74,0,0,0-5.57-1.91h-4c-1.59,0-2.08,0-2.85-.05a15.76,15.76,0,0,1,.18,2.82V25.73a18.65,18.65,0,0,1-.12,2.52l3.93-3.39v-9h2.52a4,4,0,0,1,3,1A4.48,4.48,0,0,1,17,19.77a.71.71,0,0,0,0,.14h0l2.84-1.41v.45L17.6,20.08l2.29,1.18v.51l-2.83-1.46h0s0,.07,0,.1v.08a5.16,5.16,0,0,1-1.22,3.61,3.7,3.7,0,0,1-2.83,1H10.68L6.74,28.54c.67,0,1.24-.05,2.54-.05h4.06a7.42,7.42,0,0,0,5.41-1.93,6.69,6.69,0,0,0,1.44-2.12,7.29,7.29,0,0,0,1.48,2.29,7.76,7.76,0,0,0,5.69,2.12,6.9,6.9,0,0,0,5.39-2.09,7.2,7.2,0,0,0,1.6-3.53Z"/></svg>