<?xml version="1.0" encoding="utf-8"?>
<!-- Generator: Adobe Illustrator 25.4.0, SVG Export Plug-In . SVG Version: 6.00 Build 0)  -->
<svg version="1.1" id="Layer_1" xmlns="http://www.w3.org/2000/svg" xmlns:xlink="http://www.w3.org/1999/xlink" x="0px" y="0px"
	 viewBox="0 0 40 40" style="enable-background:new 0 0 40 40;" xml:space="preserve">
<style type="text/css">
	.st0{fill:#77A9DB;}
	.st1{fill:#8EBAD0;}
	.st2{fill:#00B9E9;}
	.st3{fill:#B2D3EF;}
</style>
<path class="st0" d="M10.98,25.84L10.98,25.84c-0.38-0.43-0.35-1.09,0.08-1.47l16.01-14.32c0.43-0.38,1.09-0.35,1.47,0.08l0,0
	c0.38,0.43,0.35,1.09-0.08,1.47L12.46,25.93C12.03,26.31,11.37,26.27,10.98,25.84z"/>
<path class="st1" d="M11.9,17.19L11.9,17.19c-0.38-0.43-0.35-1.09,0.08-1.47l5.91-5.28c0.43-0.38,1.09-0.35,1.47,0.08v0
	c0.38,0.43,0.35,1.09-0.08,1.47l-5.91,5.28C12.94,17.65,12.28,17.62,11.9,17.19z"/>
<path class="st2" d="M17.78,27.56L17.78,27.56c-0.38-0.43-0.35-1.09,0.08-1.47l9.68-8.65c0.43-0.38,1.09-0.35,1.47,0.08l0,0
	c0.38,0.43,0.35,1.09-0.08,1.47l-9.68,8.65C18.83,28.03,18.17,27.99,17.78,27.56z"/>
<path class="st3" d="M25.02,28.12L25.02,28.12c-0.38-0.43-0.35-1.09,0.08-1.47l2.19-1.96c0.43-0.38,1.09-0.35,1.47,0.08v0
	c0.38,0.43,0.35,1.09-0.08,1.47l-2.19,1.96C26.06,28.58,25.41,28.55,25.02,28.12z"/>
</svg>
