<?xml version="1.0" encoding="utf-8"?>
<!-- Generator: Adobe Illustrator 25.4.1, SVG Export Plug-In . SVG Version: 6.00 Build 0)  -->
<svg version="1.1" id="Layer_1" xmlns="http://www.w3.org/2000/svg" xmlns:xlink="http://www.w3.org/1999/xlink" x="0px" y="0px"
	 viewBox="0 0 1920 1080" style="enable-background:new 0 0 1920 1080;" xml:space="preserve">
<style type="text/css">
	.st0{opacity:0.58;fill:#51989E;}
	.st1{fill:#17D4FF;}
	.st2{fill:#00DEE7;}
	.st3{fill:#00B0D0;}
</style>
<path class="st0" d="M685.72,636.93L685.72,636.93c-9.75-7.86-11.28-22.14-3.41-31.89l282.26-349.87
	c7.86-9.75,22.14-11.28,31.89-3.41l0,0c9.75,7.86,11.28,22.14,3.41,31.89L717.62,633.52C709.75,643.26,695.47,644.79,685.72,636.93z
	"/>
<path class="st1" d="M894.41,733.91L894.41,733.91c-9.75-7.86-11.28-22.14-3.41-31.89l205.1-254.24
	c7.86-9.75,22.14-11.28,31.89-3.41l0,0c9.75,7.86,11.28,22.14,3.41,31.89L926.31,730.5C918.44,740.25,904.16,741.78,894.41,733.91z"
	/>
<path class="st2" d="M839.92,623.63L839.92,623.63c-9.75-7.86-11.28-22.14-3.41-31.89l147.68-183.05
	c7.86-9.75,22.14-11.28,31.89-3.41v0c9.75,7.86,11.28,22.14,3.41,31.89L871.81,620.21C863.95,629.96,849.67,631.49,839.92,623.63z"
	/>
<path class="st3" d="M1057.42,709.69L1057.42,709.69c-9.75-7.86-11.28-22.14-3.41-31.89l60.3-74.75
	c7.86-9.75,22.14-11.28,31.89-3.41h0c9.75,7.86,11.28,22.14,3.41,31.89l-60.3,74.75C1081.45,716.03,1067.17,717.56,1057.42,709.69z"
	/>
<path class="st3" d="M709.8,429.25L709.8,429.25c-9.75-7.86-11.28-22.14-3.41-31.89l60.3-74.75c7.86-9.75,22.14-11.28,31.89-3.41
	l0,0c9.75,7.86,11.28,22.14,3.41,31.89l-60.3,74.75C733.83,435.59,719.55,437.12,709.8,429.25z"/>
<path class="st0" d="M1778.72,75.06L1778.72,75.06c-3.46-2.79-4-7.86-1.21-11.32L1877.7-60.45c2.79-3.46,7.86-4,11.32-1.21v0
	c3.46,2.79,4,7.86,1.21,11.32L1790.04,73.85C1787.25,77.31,1782.18,77.85,1778.72,75.06z"/>
<path class="st1" d="M1852.8,109.48L1852.8,109.48c-3.46-2.79-4-7.86-1.21-11.32l72.8-90.24c2.79-3.46,7.86-4,11.32-1.21v0
	c3.46,2.79,4,7.86,1.21,11.32l-72.8,90.24C1861.33,111.73,1856.26,112.28,1852.8,109.48z"/>
<path class="st2" d="M1833.46,70.34L1833.46,70.34c-3.46-2.79-4-7.86-1.21-11.32l52.42-64.97c2.79-3.46,7.86-4,11.32-1.21v0
	c3.46,2.79,4,7.86,1.21,11.32l-52.42,64.97C1841.98,72.59,1836.92,73.13,1833.46,70.34z"/>
<path class="st3" d="M1910.66,100.89L1910.66,100.89c-3.46-2.79-4-7.86-1.21-11.32l21.4-26.53c2.79-3.46,7.86-4,11.32-1.21v0
	c3.46,2.79,4,7.86,1.21,11.32l-21.4,26.53C1919.19,103.14,1914.12,103.68,1910.66,100.89z"/>
<path class="st3" d="M1787.27,1.34L1787.27,1.34c-3.46-2.79-4-7.86-1.21-11.32l21.4-26.53c2.79-3.46,7.86-4,11.32-1.21v0
	c3.46,2.79,4,7.86,1.21,11.32l-21.4,26.53C1795.8,3.59,1790.73,4.14,1787.27,1.34z"/>
<path class="st0" d="M1327.72,253.06L1327.72,253.06c-3.46-2.79-4-7.86-1.21-11.32l100.19-124.19c2.79-3.46,7.86-4,11.32-1.21v0
	c3.46,2.79,4,7.86,1.21,11.32l-100.19,124.19C1336.25,255.31,1331.18,255.85,1327.72,253.06z"/>
<path class="st1" d="M1401.8,287.48L1401.8,287.48c-3.46-2.79-4-7.86-1.21-11.32l72.8-90.24c2.79-3.46,7.86-4,11.32-1.21v0
	c3.46,2.79,4,7.86,1.21,11.32l-72.8,90.24C1410.33,289.73,1405.26,290.28,1401.8,287.48z"/>
<path class="st2" d="M1382.46,248.34L1382.46,248.34c-3.46-2.79-4-7.86-1.21-11.32l52.42-64.97c2.79-3.46,7.86-4,11.32-1.21l0,0
	c3.46,2.79,4,7.86,1.21,11.32l-52.42,64.97C1390.98,250.59,1385.92,251.13,1382.46,248.34z"/>
<path class="st3" d="M1459.66,278.89L1459.66,278.89c-3.46-2.79-4-7.86-1.21-11.32l21.4-26.53c2.79-3.46,7.86-4,11.32-1.21l0,0
	c3.46,2.79,4,7.86,1.21,11.32l-21.4,26.53C1468.19,281.14,1463.12,281.68,1459.66,278.89z"/>
<path class="st3" d="M1336.27,179.34L1336.27,179.34c-3.46-2.79-4-7.86-1.21-11.32l21.4-26.53c2.79-3.46,7.86-4,11.32-1.21v0
	c3.46,2.79,4,7.86,1.21,11.32l-21.4,26.53C1344.8,181.59,1339.73,182.14,1336.27,179.34z"/>
<path class="st0" d="M955.72,1111.06L955.72,1111.06c-3.46-2.79-4-7.86-1.21-11.32l100.19-124.19c2.79-3.46,7.86-4,11.32-1.21l0,0
	c3.46,2.79,4,7.86,1.21,11.32l-100.19,124.19C964.25,1113.31,959.18,1113.85,955.72,1111.06z"/>
<path class="st1" d="M1029.8,1145.48L1029.8,1145.48c-3.46-2.79-4-7.86-1.21-11.32l72.8-90.24c2.79-3.46,7.86-4,11.32-1.21l0,0
	c3.46,2.79,4,7.86,1.21,11.32l-72.8,90.24C1038.33,1147.73,1033.26,1148.28,1029.8,1145.48z"/>
<path class="st2" d="M1010.46,1106.34L1010.46,1106.34c-3.46-2.79-4-7.86-1.21-11.32l52.42-64.97c2.79-3.46,7.86-4,11.32-1.21l0,0
	c3.46,2.79,4,7.86,1.21,11.32l-52.42,64.97C1018.98,1108.59,1013.92,1109.13,1010.46,1106.34z"/>
<path class="st3" d="M1087.66,1136.89L1087.66,1136.89c-3.46-2.79-4-7.86-1.21-11.32l21.4-26.53c2.79-3.46,7.86-4,11.32-1.21l0,0
	c3.46,2.79,4,7.86,1.21,11.32l-21.4,26.53C1096.19,1139.14,1091.12,1139.68,1087.66,1136.89z"/>
<path class="st3" d="M964.27,1037.34L964.27,1037.34c-3.46-2.79-4-7.86-1.21-11.32l21.4-26.53c2.79-3.46,7.86-4,11.32-1.21l0,0
	c3.46,2.79,4,7.86,1.21,11.32l-21.4,26.53C972.8,1039.59,967.73,1040.14,964.27,1037.34z"/>
<path class="st0" d="M-9.6,606.81l-13.81-11.14c-2.34-1.89-2.71-5.32-0.82-7.66l189.35-234.7c1.89-2.34,5.32-2.71,7.66-0.82
	l13.81,11.14c2.34,1.89,2.71,5.32,0.82,7.66L-1.94,605.99C-3.83,608.33-7.26,608.7-9.6,606.81z"/>
<path class="st1" d="M122.15,668.04l-13.81-11.14c-2.34-1.89-2.71-5.32-0.82-7.66l140.63-174.32c1.89-2.34,5.32-2.71,7.66-0.82
	l13.81,11.14c2.34,1.89,2.71,5.32,0.82,7.66L129.81,667.23C127.92,669.57,124.49,669.93,122.15,668.04z"/>
<path class="st2" d="M87.75,598.42l-13.81-11.14c-2.34-1.89-2.71-5.32-0.82-7.66L177.5,450.24c1.89-2.34,5.32-2.71,7.66-0.82
	l13.81,11.14c2.34,1.89,2.71,5.32,0.82,7.66L95.41,597.6C93.52,599.94,90.09,600.3,87.75,598.42z"/>
<path class="st3" d="M225.06,652.75l-13.81-11.14c-2.34-1.89-2.71-5.32-0.82-7.66l49.22-61c1.89-2.34,5.32-2.71,7.66-0.82
	l13.81,11.14c2.34,1.89,2.71,5.32,0.82,7.66l-49.22,61C230.83,654.28,227.4,654.64,225.06,652.75z"/>
<path class="st3" d="M5.6,475.7l-13.81-11.14c-2.34-1.89-2.71-5.32-0.82-7.66l49.22-61c1.89-2.34,5.32-2.71,7.66-0.82l13.81,11.14
	c2.34,1.89,2.71,5.32,0.82,7.66l-49.22,61C11.37,477.22,7.94,477.59,5.6,475.7z"/>
<path class="st0" d="M523.41,867.11L523.41,867.11c-2.34-1.89-2.71-5.32-0.82-7.66l67.76-83.99c1.89-2.34,5.32-2.71,7.66-0.82l0,0
	c2.34,1.89,2.71,5.32,0.82,7.66l-67.76,83.99C529.18,868.63,525.75,869,523.41,867.11z"/>
<path class="st1" d="M573.51,890.39L573.51,890.39c-2.34-1.89-2.71-5.32-0.82-7.66l49.24-61.03c1.89-2.34,5.32-2.71,7.66-0.82l0,0
	c2.34,1.89,2.71,5.32,0.82,7.66l-49.24,61.03C579.28,891.92,575.85,892.28,573.51,890.39z"/>
<path class="st2" d="M560.43,863.92L560.43,863.92c-2.34-1.89-2.71-5.32-0.82-7.66l35.45-43.94c1.89-2.34,5.32-2.71,7.66-0.82l0,0
	c2.34,1.89,2.71,5.32,0.82,7.66l-35.45,43.94C566.2,865.44,562.77,865.81,560.43,863.92z"/>
<path class="st3" d="M612.64,884.58L612.64,884.58c-2.34-1.89-2.71-5.32-0.82-7.66l14.48-17.94c1.89-2.34,5.32-2.71,7.66-0.82l0,0
	c2.34,1.89,2.71,5.32,0.82,7.66l-14.48,17.94C618.41,886.1,614.98,886.47,612.64,884.58z"/>
<path class="st3" d="M529.19,817.26L529.19,817.26c-2.34-1.89-2.71-5.32-0.82-7.66l14.48-17.94c1.89-2.34,5.32-2.71,7.66-0.82l0,0
	c2.34,1.89,2.71,5.32,0.82,7.66l-14.48,17.94C534.96,818.78,531.53,819.15,529.19,817.26z"/>
<path class="st0" d="M1323.41,748.11L1323.41,748.11c-2.34-1.89-2.71-5.32-0.82-7.66l67.76-83.99c1.89-2.34,5.32-2.71,7.66-0.82l0,0
	c2.34,1.89,2.71,5.32,0.82,7.66l-67.76,83.99C1329.18,749.63,1325.75,750,1323.41,748.11z"/>
<path class="st1" d="M1373.51,771.39L1373.51,771.39c-2.34-1.89-2.71-5.32-0.82-7.66l49.24-61.03c1.89-2.34,5.32-2.71,7.66-0.82l0,0
	c2.34,1.89,2.71,5.32,0.82,7.66l-49.24,61.03C1379.28,772.92,1375.85,773.28,1373.51,771.39z"/>
<path class="st2" d="M1360.43,744.92L1360.43,744.92c-2.34-1.89-2.71-5.32-0.82-7.66l35.45-43.94c1.89-2.34,5.32-2.71,7.66-0.82l0,0
	c2.34,1.89,2.71,5.32,0.82,7.66l-35.45,43.94C1366.2,746.44,1362.77,746.81,1360.43,744.92z"/>
<path class="st3" d="M1412.64,765.58L1412.64,765.58c-2.34-1.89-2.71-5.32-0.82-7.66l14.48-17.94c1.89-2.34,5.32-2.71,7.66-0.82l0,0
	c2.34,1.89,2.71,5.32,0.82,7.66l-14.48,17.94C1418.41,767.1,1414.98,767.47,1412.64,765.58z"/>
<path class="st3" d="M1329.19,698.26L1329.19,698.26c-2.34-1.89-2.71-5.32-0.82-7.66l14.48-17.94c1.89-2.34,5.32-2.71,7.66-0.82l0,0
	c2.34,1.89,2.71,5.32,0.82,7.66l-14.48,17.94C1334.96,699.78,1331.53,700.15,1329.19,698.26z"/>
<path class="st0" d="M470.18,439.71L470.18,439.71c-1.17-0.94-1.35-2.66-0.41-3.83l33.86-41.97c0.94-1.17,2.66-1.35,3.83-0.41l0,0
	c1.17,0.94,1.35,2.66,0.41,3.83L474,439.31C473.06,440.47,471.35,440.66,470.18,439.71z"/>
<path class="st1" d="M495.21,451.35L495.21,451.35c-1.17-0.94-1.35-2.66-0.41-3.83l24.6-30.49c0.94-1.17,2.66-1.35,3.83-0.41l0,0
	c1.17,0.94,1.35,2.66,0.41,3.83l-24.6,30.49C498.09,452.11,496.38,452.29,495.21,451.35z"/>
<path class="st2" d="M488.67,438.12L488.67,438.12c-1.17-0.94-1.35-2.66-0.41-3.83l17.71-21.96c0.94-1.17,2.66-1.35,3.83-0.41l0,0
	c1.17,0.94,1.35,2.66,0.41,3.83l-17.71,21.96C491.56,438.88,489.84,439.06,488.67,438.12z"/>
<path class="st3" d="M514.76,448.44L514.76,448.44c-1.17-0.94-1.35-2.66-0.41-3.83l7.23-8.97c0.94-1.17,2.66-1.35,3.83-0.41h0
	c1.17,0.94,1.35,2.66,0.41,3.83l-7.23,8.97C517.64,449.2,515.93,449.39,514.76,448.44z"/>
<path class="st3" d="M473.07,414.81L473.07,414.81c-1.17-0.94-1.35-2.66-0.41-3.83l7.23-8.97c0.94-1.17,2.66-1.35,3.83-0.41h0
	c1.17,0.94,1.35,2.66,0.41,3.83l-7.23,8.97C475.95,415.57,474.24,415.75,473.07,414.81z"/>
<path class="st0" d="M511.37,85.18l-4.32-3.49c-2.34-1.89-2.71-5.32-0.82-7.66L612.02-57.09c1.89-2.34,5.32-2.71,7.66-0.82
	l4.32,3.49c2.34,1.89,2.71,5.32,0.82,7.66L519.02,84.36C517.14,86.7,513.71,87.07,511.37,85.18z"/>
<path class="st1" d="M587.01,120.33l-4.32-3.49c-2.34-1.89-2.71-5.32-0.82-7.66l77.82-96.47c1.89-2.34,5.32-2.71,7.66-0.82
	l4.32,3.49c2.34,1.89,2.71,5.32,0.82,7.66l-77.82,96.47C592.78,121.85,589.35,122.22,587.01,120.33z"/>
<path class="st2" d="M567.26,80.36l-4.32-3.49c-2.34-1.89-2.71-5.32-0.82-7.66l57.01-70.67c1.89-2.34,5.32-2.71,7.66-0.82l4.32,3.49
	c2.34,1.89,2.71,5.32,0.82,7.66l-57.01,70.67C573.02,81.88,569.6,82.25,567.26,80.36z"/>
<path class="st3" d="M646.09,111.55l-4.32-3.49c-2.34-1.89-2.71-5.32-0.82-7.66L666.29,69c1.89-2.34,5.32-2.71,7.66-0.82l4.32,3.49
	c2.34,1.89,2.71,5.32,0.82,7.66l-25.34,31.41C651.86,113.07,648.43,113.44,646.09,111.55z"/>
<path class="st3" d="M520.09,9.91l-4.32-3.49c-2.34-1.89-2.71-5.32-0.82-7.66l25.34-31.41c1.89-2.34,5.32-2.71,7.66-0.82l4.32,3.49
	c2.34,1.89,2.71,5.32,0.82,7.66L527.75,9.09C525.86,11.43,522.43,11.8,520.09,9.91z"/>
<path class="st0" d="M3.85,1041.4l-6.15-4.97c-3.46-2.79-4-7.86-1.21-11.32l154.36-191.34c2.79-3.46,7.86-4,11.32-1.21l6.15,4.97
	c3.46,2.79,4,7.86,1.21,11.32L15.17,1040.19C12.38,1043.65,7.31,1044.19,3.85,1041.4z"/>
<path class="st1" d="M114.31,1092.73l-6.15-4.97c-3.46-2.79-4-7.86-1.21-11.32l113.53-140.72c2.79-3.46,7.86-4,11.32-1.21l6.15,4.97
	c3.46,2.79,4,7.86,1.21,11.32l-113.53,140.72C122.84,1094.98,117.77,1095.52,114.31,1092.73z"/>
<path class="st2" d="M85.47,1034.36l-6.15-4.97c-3.46-2.79-4-7.86-1.21-11.32l83.13-103.04c2.79-3.46,7.86-4,11.32-1.21l6.15,4.97
	c3.46,2.79,4,7.86,1.21,11.32l-83.13,103.04C94,1036.61,88.93,1037.15,85.47,1034.36z"/>
<path class="st3" d="M200.59,1079.91l-6.15-4.97c-3.46-2.79-4-7.86-1.21-11.32l36.88-45.72c2.79-3.46,7.86-4,11.32-1.21l6.15,4.97
	c3.46,2.79,4,7.86,1.21,11.32l-36.88,45.72C209.12,1082.16,204.05,1082.71,200.59,1079.91z"/>
<path class="st3" d="M16.6,931.48l-6.15-4.97c-3.46-2.79-4-7.86-1.21-11.32l36.88-45.72c2.79-3.46,7.86-4,11.32-1.21l6.15,4.97
	c3.46,2.79,4,7.86,1.21,11.32l-36.88,45.72C25.12,933.73,20.06,934.27,16.6,931.48z"/>
<path class="st0" d="M1604.45,663.81l-12.63-10.19c-3.46-2.79-4-7.86-1.21-11.32l211.35-261.98c2.79-3.46,7.86-4,11.32-1.21
	l12.63,10.19c3.46,2.79,4,7.86,1.21,11.32L1615.77,662.6C1612.98,666.06,1607.92,666.61,1604.45,663.81z"/>
<path class="st1" d="M1753.19,732.94l-12.63-10.19c-3.46-2.79-4-7.86-1.21-11.32l156.36-193.82c2.79-3.46,7.86-4,11.32-1.21
	l12.63,10.19c3.46,2.79,4,7.86,1.21,11.32l-156.36,193.82C1761.71,735.19,1756.65,735.73,1753.19,732.94z"/>
<path class="st2" d="M1714.35,654.34l-12.63-10.19c-3.46-2.79-4-7.86-1.21-11.32l115.44-143.09c2.79-3.46,7.86-4,11.32-1.21
	l12.63,10.19c3.46,2.79,4,7.86,1.21,11.32l-115.44,143.09C1722.88,656.58,1717.81,657.13,1714.35,654.34z"/>
<path class="st3" d="M1869.36,715.68l-12.63-10.19c-3.46-2.79-4-7.86-1.21-11.32l53.17-65.9c2.79-3.46,7.86-4,11.32-1.21
	l12.63,10.19c3.46,2.79,4,7.86,1.21,11.32l-53.17,65.9C1877.89,717.93,1872.82,718.47,1869.36,715.68z"/>
<path class="st3" d="M1621.61,515.81l-12.63-10.19c-3.46-2.79-4-7.86-1.21-11.32l53.17-65.9c2.79-3.46,7.86-4,11.32-1.21
	l12.63,10.19c3.46,2.79,4,7.86,1.21,11.32l-53.17,65.9C1630.14,518.06,1625.07,518.6,1621.61,515.81z"/>
<path class="st0" d="M1744.72,1103.06L1744.72,1103.06c-3.46-2.79-4-7.86-1.21-11.32l100.19-124.19c2.79-3.46,7.86-4,11.32-1.21l0,0
	c3.46,2.79,4,7.86,1.21,11.32l-100.19,124.19C1753.25,1105.31,1748.18,1105.85,1744.72,1103.06z"/>
<path class="st1" d="M1818.8,1137.48L1818.8,1137.48c-3.46-2.79-4-7.86-1.21-11.32l72.8-90.24c2.79-3.46,7.86-4,11.32-1.21l0,0
	c3.46,2.79,4,7.86,1.21,11.32l-72.8,90.24C1827.33,1139.73,1822.26,1140.28,1818.8,1137.48z"/>
<path class="st2" d="M1799.46,1098.34L1799.46,1098.34c-3.46-2.79-4-7.86-1.21-11.32l52.42-64.97c2.79-3.46,7.86-4,11.32-1.21v0
	c3.46,2.79,4,7.86,1.21,11.32l-52.42,64.97C1807.98,1100.59,1802.92,1101.13,1799.46,1098.34z"/>
<path class="st3" d="M1876.66,1128.89L1876.66,1128.89c-3.46-2.79-4-7.86-1.21-11.32l21.4-26.53c2.79-3.46,7.86-4,11.32-1.21l0,0
	c3.46,2.79,4,7.86,1.21,11.32l-21.4,26.53C1885.19,1131.14,1880.12,1131.68,1876.66,1128.89z"/>
<path class="st3" d="M1753.27,1029.34L1753.27,1029.34c-3.46-2.79-4-7.86-1.21-11.32l21.4-26.53c2.79-3.46,7.86-4,11.32-1.21l0,0
	c3.46,2.79,4,7.86,1.21,11.32l-21.4,26.53C1761.8,1031.59,1756.73,1032.14,1753.27,1029.34z"/>
<path class="st0" d="M11.97,127.23l-4.82-3.89c-2.06-1.66-2.39-4.69-0.72-6.75L108.61-10.07c1.66-2.06,4.69-2.39,6.75-0.72
	l4.82,3.89c2.06,1.66,2.39,4.69,0.72,6.75L18.72,126.51C17.05,128.57,14.03,128.9,11.97,127.23z"/>
<path class="st1" d="M84.64,161.01l-4.82-3.89c-2.06-1.66-2.39-4.69-0.72-6.75l75.32-93.36c1.66-2.06,4.69-2.39,6.75-0.72l4.82,3.89
	c2.06,1.66,2.39,4.69,0.72,6.75l-75.32,93.36C89.73,162.35,86.7,162.67,84.64,161.01z"/>
<path class="st2" d="M65.67,122.6l-4.82-3.89c-2.06-1.66-2.39-4.69-0.72-6.75l55.32-68.57c1.66-2.06,4.69-2.39,6.75-0.72l4.82,3.89
	c2.06,1.66,2.39,4.69,0.72,6.75l-55.32,68.57C70.75,123.94,67.73,124.27,65.67,122.6z"/>
<path class="st3" d="M141.41,152.57l-4.82-3.89c-2.06-1.66-2.39-4.69-0.72-6.75l24.89-30.85c1.66-2.06,4.69-2.39,6.75-0.72
	l4.82,3.89c2.06,1.66,2.39,4.69,0.72,6.75l-24.89,30.85C146.49,153.92,143.47,154.24,141.41,152.57z"/>
<path class="st3" d="M20.35,54.91l-4.82-3.89c-2.06-1.66-2.39-4.69-0.72-6.75L39.7,13.42c1.66-2.06,4.69-2.39,6.75-0.72l4.82,3.89
	c2.06,1.66,2.39,4.69,0.72,6.75L27.1,54.19C25.44,56.25,22.41,56.58,20.35,54.91z"/>
</svg>
