<svg id="Layer_1" data-name="Layer 1" xmlns="http://www.w3.org/2000/svg" viewBox="0 0 27.92 16.71"><defs><style>.cls-1{fill:#231f20;}</style></defs><path class="cls-1" d="M30,22.14a3.41,3.41,0,0,1-.58,1.67A3,3,0,0,1,26.86,25c-2.39,0-3.81-1.9-3.81-5,0,0,0-.09,0-.15h0l-2.83,1.46v-.51l2.29-1.18-2.29-1.14V18L23,19.41h0c.16-2.82,1.48-4.46,3.69-4.46a2.89,2.89,0,0,1,3,2.61l4-.76a6,6,0,0,0-1.2-2.64,6.7,6.7,0,0,0-5.67-2.52,7.8,7.8,0,0,0-5.53,2,7,7,0,0,0-1.52,2.27,6.31,6.31,0,0,0-1.38-2A7.7,7.7,0,0,0,12.91,12h-4C7.3,12,6.81,12,6,11.94a15.76,15.76,0,0,1,.18,2.82V25.24a18.65,18.65,0,0,1-.12,2.52L10,24.37v-9h2.52a4,4,0,0,1,3,1,4.48,4.48,0,0,1,1.11,3v.14h0L19.49,18v.45l-2.28,1.14,2.28,1.18v.51l-2.83-1.46h0V20a5.11,5.11,0,0,1-1.21,3.61,3.73,3.73,0,0,1-2.84,1H10.29L6.34,28.05C7,28,7.59,28,8.89,28H13a7.49,7.49,0,0,0,5.41-1.92A6.65,6.65,0,0,0,19.79,24a7.38,7.38,0,0,0,1.49,2.29A7.76,7.76,0,0,0,27,28.36a6.91,6.91,0,0,0,5.39-2.09A7.2,7.2,0,0,0,34,22.74Z" transform="translate(-6.04 -11.64)"/></svg>