<?xml version="1.0" encoding="utf-8"?>
<!-- Generator: Adobe Illustrator 25.4.0, SVG Export Plug-In . SVG Version: 6.00 Build 0)  -->
<svg version="1.1" id="Layer_1" xmlns="http://www.w3.org/2000/svg" xmlns:xlink="http://www.w3.org/1999/xlink" x="0px" y="0px"
	 viewBox="0 0 40 40" style="enable-background:new 0 0 40 40;" xml:space="preserve">
<style type="text/css">
	.st0{fill:#FFFFFF;}
</style>
<path class="st0" d="M29.96,22.14c-0.12,0.82-0.26,1.2-0.58,1.67c-0.56,0.77-1.46,1.2-2.53,1.2c-2.38,0-3.81-1.9-3.81-5.04
	c0-0.05,0.01-0.1,0.01-0.15h-0.02l-2.83,1.45v-0.51l2.28-1.18l-2.28-1.14V18l2.82,1.41h0.05c0.16-2.82,1.48-4.46,3.69-4.46
	c1.65,0,2.67,0.86,3.04,2.61l3.96-0.77c-0.26-1.14-0.58-1.85-1.19-2.64c-1.26-1.67-3.19-2.51-5.68-2.51c-2.26,0-4.19,0.7-5.52,2
	c-0.64,0.63-1.15,1.4-1.53,2.27c-0.33-0.77-0.79-1.45-1.37-2.01c-1.28-1.26-3.19-1.91-5.56-1.91H8.89c-1.59,0-2.08-0.01-2.85-0.05
	c0.14,0.88,0.18,1.51,0.18,2.82v10.48c0,1.17-0.03,1.81-0.12,2.51l3.92-3.39v-9.01h2.53c1.38,0,2.31,0.31,2.97,0.97
	c0.65,0.65,1.03,1.63,1.12,2.95c0,0.04,0,0.09,0,0.13h0.01v0L19.49,18v0.46l-2.28,1.14l2.28,1.18v0.51l-2.83-1.45h-0.01
	c0,0.03,0,0.07,0,0.1V20c-0.01,1.55-0.44,2.82-1.22,3.61c-0.69,0.69-1.58,1.03-2.83,1.03h-2.31l-3.95,3.41
	C7.02,28.02,7.59,28,8.89,28h4.06c2.29,0,4.11-0.65,5.41-1.92c0.6-0.6,1.09-1.31,1.44-2.13c0.37,0.9,0.87,1.67,1.49,2.29
	c1.36,1.38,3.35,2.11,5.69,2.11c2.33,0,4.19-0.73,5.38-2.09c0.82-0.95,1.24-1.88,1.6-3.52L29.96,22.14z"/>
</svg>
