<svg id="Layer_1" data-name="Layer 1" xmlns="http://www.w3.org/2000/svg" viewBox="0 0 189.9 191.52"><defs><style>.cls-1{fill:none;stroke:#232323;stroke-miterlimit:10;}.cls-2{fill:#232323;}</style></defs><polygon class="cls-1" points="114.43 128.33 189.4 71.94 189.4 184.72 114.43 128.33"/><polygon class="cls-1" points="184.72 67.5 166.83 54.35 166.83 80.65 184.72 67.5"/><polygon class="cls-1" points="95.39 0.63 57.76 29.26 133.01 29.26 95.39 0.63"/><polygon class="cls-1" points="5.09 67.5 23.59 54.35 23.59 80.65 5.09 67.5"/><polygon class="cls-1" points="76.1 128.33 0.5 71.94 0.5 184.72 76.1 128.33"/><path class="cls-1" d="M74.88,84.81v51.26l50.32,35.77s12.43-12.2,27.75,0l51.26-35.77V84.81Z" transform="translate(-44.4 -48.61)"/><path class="cls-1" d="M202.09,216.84,188,206.13l-40.66-30.91a12.81,12.81,0,0,0-15.52,0L81.3,213.58l-4.12,3.13L47,239.63h185Z" transform="translate(-44.4 -48.61)"/><path class="cls-2" d="M98.29,126l18.63-9.59v2.77L101.23,127v.08L116.92,135v2.77l-18.63-9.6Z" transform="translate(-44.4 -48.61)"/><path class="cls-2" d="M136.36,137a12.85,12.85,0,0,1-5.58,1.13c-5.86,0-9.67-4-9.67-9.92s4.09-10.31,10.44-10.31a11.82,11.82,0,0,1,4.89,1l-.8,2.73a8.21,8.21,0,0,0-4.09-.92c-4.46,0-6.87,3.29-6.87,7.34,0,4.5,2.89,7.27,6.75,7.27a9.89,9.89,0,0,0,4.33-1Z" transform="translate(-44.4 -48.61)"/><path class="cls-2" d="M157.05,109.25v23.48c0,1.72,0,3.69.16,5H154l-.16-3.38h-.08a7.21,7.21,0,0,1-6.63,3.82c-4.69,0-8.31-4-8.31-9.88,0-6.46,4-10.43,8.71-10.43a6.51,6.51,0,0,1,5.87,3h.08v-11.6Zm-3.53,17a6.25,6.25,0,0,0-.17-1.49,5.19,5.19,0,0,0-5.09-4.1c-3.66,0-5.83,3.22-5.83,7.51,0,3.94,1.93,7.19,5.75,7.19a5.31,5.31,0,0,0,5.17-4.22,6.1,6.1,0,0,0,.17-1.52Z" transform="translate(-44.4 -48.61)"/><path class="cls-2" d="M181.27,128.19l-18.63,9.56V135l15.82-7.87V127l-15.82-7.87v-2.77l18.63,9.55Z" transform="translate(-44.4 -48.61)"/></svg>