<svg id="Layer_1" data-name="Layer 1" xmlns="http://www.w3.org/2000/svg" viewBox="0 0 284.67 170.44"><defs><style>.cls-1{fill:#231f20;}</style></defs><path class="cls-1" d="M259.22,136.12c-1.18,8.36-2.61,12.28-5.88,17-5.75,7.84-14.9,12.29-25.75,12.29-24.31,0-38.82-19.35-38.82-51.37,0-.54.08-1,.09-1.53h-.21l-28.82,14.81v-5.19l23.29-12L159.83,98.53V93.87l28.74,14.36h.53c1.62-28.75,15-45.44,37.58-45.44,16.86,0,27.18,8.76,31,26.67L298,81.61c-2.62-11.63-5.88-18.82-12.16-26.92-12.8-17-32.54-25.62-57.9-25.62-23,0-42.74,7.19-56.33,20.39A71.35,71.35,0,0,0,156.1,72.6a64.21,64.21,0,0,0-14-20.52C129,39.27,109.56,32.6,85.38,32.6h-41c-16.2,0-21.17-.13-29-.52,1.43,9,1.83,15.42,1.83,28.75V167.75A200.23,200.23,0,0,1,16,193.39l40-34.56V67H81.72c14.12,0,23.53,3.13,30.33,9.93S122.5,93.51,123.42,107c0,.44,0,.92,0,1.37h.1l29-14.47v4.66l-23.3,11.58,23.3,12v5.19l-28.86-14.83h-.12c0,.35,0,.68,0,1v.78c-.13,15.82-4.44,28.75-12.42,36.86-7,7.06-16.07,10.46-28.88,10.46H58.68L18.42,196.37c6.84-.32,12.68-.52,25.92-.52H85.78c23.39,0,42-6.67,55.15-19.61a67.5,67.5,0,0,0,14.64-21.69,73,73,0,0,0,15.16,23.39c13.86,14.12,34.12,21.57,58,21.57s42.74-7.45,54.89-21.31C292,168.53,296.34,159,300,142.26Z" transform="translate(-15.33 -29.07)"/></svg>